HIERARCHY
ROOT Hips
{
	OFFSET	0.00	0.00	0.00
	CHANNELS 6 Xposition Yposition Zposition Zrotation Xrotation Yrotation
	JOINT LeftUpLeg
	{
		OFFSET	 0.126116	-0.014019	-0.065224
		CHANNELS 3 Zrotation Xrotation Yrotation
		JOINT LeftLeg
		{
			OFFSET	 0.000000	 0.000000	 0.569914
			CHANNELS 3 Zrotation Xrotation Yrotation
			JOINT LeftFoot
			{
				OFFSET	 0.000000	 0.000000	 0.544423
				CHANNELS 3 Zrotation Xrotation Yrotation
				JOINT LeftToeBase
				{
					OFFSET	 0.000000	 0.000000	 0.207117
					CHANNELS 3 Zrotation Xrotation Yrotation
					End Site
					{
						OFFSET	 0.000000	 0.000000	 0.207117
					}
				}
			}
		}
	}
	JOINT RightUpLeg
	{
		OFFSET	-0.124023	-0.008373	-0.065224
		CHANNELS 3 Zrotation Xrotation Yrotation
		JOINT RightLeg
		{
			OFFSET	 0.000000	 0.000000	 0.570047
			CHANNELS 3 Zrotation Xrotation Yrotation
			JOINT RightFoot
			{
				OFFSET	 0.000000	 0.000000	 0.544354
				CHANNELS 3 Zrotation Xrotation Yrotation
				JOINT RightToeBase
				{
					OFFSET	 0.000000	 0.000000	 0.207540
					CHANNELS 3 Zrotation Xrotation Yrotation
					End Site
					{
						OFFSET	 0.000000	 0.000000	 0.207540
					}
				}
			}
		}
	}
	JOINT Spine
	{
		OFFSET	 0.000184	-0.007763	 0.117403
		CHANNELS 3 Zrotation Xrotation Yrotation
		JOINT Spine1
		{
			OFFSET	 0.000000	 0.000000	 0.137269
			CHANNELS 3 Zrotation Xrotation Yrotation
			JOINT Spine2
			{
				OFFSET	 0.000000	 0.000000	 0.156879
				CHANNELS 3 Zrotation Xrotation Yrotation
				JOINT LeftShoulder
				{
					OFFSET	 0.080501	-0.002496	 0.160144
					CHANNELS 3 Zrotation Xrotation Yrotation
					JOINT LeftArm
					{
						OFFSET	 0.000000	 0.000000	 0.164363
						CHANNELS 3 Zrotation Xrotation Yrotation
						JOINT LeftForeArm
						{
							OFFSET	 0.000000	 0.000000	 0.364576
							CHANNELS 3 Zrotation Xrotation Yrotation
							JOINT LeftHand
							{
								OFFSET	 0.000000	 0.000000	 0.360812
								CHANNELS 3 Zrotation Xrotation Yrotation
								JOINT LeftHandIndex1
								{
									OFFSET	 0.000000	 0.000000	 0.086006
									CHANNELS 3 Zrotation Xrotation Yrotation
									JOINT LeftHandIndex2
									{
										OFFSET	 0.000000	 0.000000	 0.047237
										CHANNELS 3 Zrotation Xrotation Yrotation
										JOINT LeftHandIndex3
										{
											OFFSET	-0.004284	-0.000551	 0.038165
											CHANNELS 3 Zrotation Xrotation Yrotation
											End Site
											{
												OFFSET	-0.004284	-0.000551	 0.038165
											}
										}
									}
								}
							}
						}
					}
				}
				JOINT Neck
				{
					OFFSET	 0.000000	 0.000000	 0.176489
					CHANNELS 3 Zrotation Xrotation Yrotation
					JOINT Head
					{
						OFFSET	 0.000000	-0.001747	 0.077940
						CHANNELS 3 Zrotation Xrotation Yrotation
						End Site
						{
							OFFSET	 0.000000	-0.001747	 0.077940
						}
					}
				}
				JOINT RightShoulder
				{
					OFFSET	-0.080363	 0.000306	 0.159706
					CHANNELS 3 Zrotation Xrotation Yrotation
					JOINT RightArm
					{
						OFFSET	 0.000000	 0.000000	 0.164196
						CHANNELS 3 Zrotation Xrotation Yrotation
						JOINT RightForeArm
						{
							OFFSET	 0.000000	 0.000000	 0.365611
							CHANNELS 3 Zrotation Xrotation Yrotation
							JOINT RightHand
							{
								OFFSET	 0.000000	 0.000000	 0.360648
								CHANNELS 3 Zrotation Xrotation Yrotation
								JOINT RightHandIndex1
								{
									OFFSET	 0.000000	 0.000000	 0.069977
									CHANNELS 3 Zrotation Xrotation Yrotation
									JOINT RightHandIndex2
									{
										OFFSET	 0.000000	 0.000000	 0.052305
										CHANNELS 3 Zrotation Xrotation Yrotation
										JOINT RightHandIndex3
										{
											OFFSET	 0.009002	-0.000782	 0.042196
											CHANNELS 3 Zrotation Xrotation Yrotation
											End Site
											{
												OFFSET	 0.009002	-0.000782	 0.042196
											}
										}
									}
								}
							}
						}
					}
				}
			}
		}
	}
}
MOTION
Frames:    10
Frame Time: 0.03333334
-0.715565	-0.030768	 1.271080	 169.712000	-9.586029	-1.429745	 5.477678	 3.535424	 178.997600	-2.003487	-29.777910	-1.723501	-44.561790	 75.877140	 35.581020	-2.385833	 28.452760	 0.000004	-29.894670	-4.080502	-165.113900	 10.026610	-31.266140	 5.360109	 16.694220	 77.198100	-18.731740	 2.384659	 28.388700	-0.000001	 54.887130	 6.224402	-12.685510	 6.481478	 4.605898	-0.710096	 1.220451	 5.281598	 1.033484	-91.776220	 78.527380	-180.000000	-13.912210	 52.394920	-22.146810	-31.671630	 18.502550	-54.311130	-52.351790	-54.312480	-32.411940	-4.130354	 21.526190	 0.991307	-5.167926	 0.731697	 3.519349	-1.378229	 35.397820	-2.634230	 14.567370	 5.888700	-2.626126	 6.353339	-13.563040	-2.794977	 89.782140	 78.203870	 180.000000	-50.975810	-2.796236	 91.475180	 9.710765	 2.002754	 138.097600	-10.146250	-28.923560	-4.588511	 5.716295	 19.173350	-3.684826	 5.027458	 0.246833	-9.377971	-2.350882	 35.473990	 5.254307
-0.715829	-0.031116	 1.270230	 169.012200	-9.550537	-0.871763	 4.915279	 3.565414	 178.590500	-1.710959	-30.057270	-1.591253	-45.975600	 75.796860	 36.843360	-2.385833	 28.452760	 0.000004	-30.644190	-4.139099	-165.485300	 10.373040	-31.382420	 5.562709	 15.557600	 77.343410	-17.783130	 2.384659	 28.388700	-0.000001	 56.550220	 5.380943	-13.989470	 7.559175	 4.984104	-2.620196	 0.987559	 4.370459	 3.487528	-91.776150	 78.527400	 180.000000	-19.986430	 48.482030	-21.543430	-31.521780	 19.042000	-55.174600	-54.635370	-54.856530	-34.004030	-4.130354	 21.526190	 0.991307	-5.167926	 0.731697	 3.519349	-1.378229	 35.397820	-2.634230	 14.919710	 5.169379	-3.951921	 6.086693	-14.484550	-4.825652	 89.782070	 78.203890	-180.000000	-52.318550	-3.908048	 90.093890	 10.923040	 0.896445	 137.575600	-13.549910	-28.114150	-3.696663	 5.716295	 19.173350	-3.684826	 5.027458	 0.246833	-9.377971	-2.350882	 35.473990	 5.254307
-0.714478	-0.031566	 1.269346	 168.677700	-8.995784	-0.615117	 4.252675	 2.843282	 178.833200	-1.487493	-30.257060	-1.487986	-45.785360	 76.113180	 36.495030	-2.385833	 28.452760	 0.000004	-31.207050	-5.021514	-165.739100	 10.666060	-31.580600	 5.751448	 15.255590	 77.206810	-17.532100	 2.384659	 28.388700	-0.000001	 57.634790	 3.565965	-14.235290	 8.408429	 6.656512	-2.628303	 0.977939	 2.885937	 3.403136	-91.776130	 78.527350	 180.000000	-26.059260	 45.476970	-21.461500	-30.967170	 19.414500	-56.650650	-56.943150	-55.477280	-35.707440	-4.130354	 21.526190	 0.991307	-5.167926	 0.731697	 3.519349	-1.378229	 35.397820	-2.634230	 15.090320	 5.416900	-4.530454	 5.974347	-16.016000	-4.953576	 89.782120	 78.203900	 180.000000	-52.363030	-4.668398	 88.755350	 12.093850	-0.193493	 137.327800	-16.499050	-27.198140	-3.330466	 5.716295	 19.173350	-3.684826	 5.027458	 0.246833	-9.377971	-2.350882	 35.473990	 5.254307
-0.712869	-0.032080	 1.268646	 168.385800	-8.207187	-0.582010	 3.633571	 1.863805	 179.386200	-1.277804	-30.307970	-1.384233	-44.036390	 76.391040	 34.579170	-2.385833	 28.452760	 0.000004	-31.604440	-6.341586	-165.900100	 10.956540	-31.902550	 5.961241	 15.237270	 77.047000	-17.508060	 2.384659	 28.388700	-0.000001	 58.678490	 1.367228	-14.210010	 9.267356	 8.882299	-1.875784	 0.955383	 1.142750	 2.725354	-91.776230	 78.527350	-180.000000	-32.062210	 42.425090	-22.910250	-30.545370	 19.544370	-57.500910	-58.980600	-56.048420	-37.071650	-4.130354	 21.526190	 0.991307	-5.167926	 0.731697	 3.519349	-1.378229	 35.397820	-2.634230	 15.160140	 5.829726	-4.958015	 5.912455	-17.664550	-4.962327	 89.782160	 78.203870	 179.999900	-51.551960	-5.249044	 87.787850	 13.508970	-1.513791	 137.132300	-19.716580	-25.856340	-3.527061	 5.716295	 19.173350	-3.684826	 5.027458	 0.246833	-9.377971	-2.350882	 35.473990	 5.254307
-0.711568	-0.032196	 1.268340	 168.058200	-7.433226	-0.491064	 2.831608	 1.097843	 179.626700	-1.017920	-30.230900	-1.250005	-43.536270	 76.525960	 33.967270	-2.385833	 28.452760	 0.000004	-32.100180	-7.413082	-166.285400	 11.276170	-32.291750	 6.201273	 14.985220	 77.164230	-17.186240	 2.384659	 28.388700	-0.000001	 59.944680	-0.909435	-14.139380	 10.434660	 10.483700	-1.825343	 0.840009	-0.109586	 2.437957	-91.776080	 78.527400	 179.999900	-36.874370	 39.908620	-26.247390	-30.378520	 19.361960	-57.368910	-60.557420	-56.622970	-37.956170	-4.130354	 21.526190	 0.991307	-5.167926	 0.731697	 3.519349	-1.378229	 35.397820	-2.634230	 15.083650	 5.744547	-5.183076	 5.799062	-18.708830	-5.256855	 89.782100	 78.203890	-180.000000	-49.786430	-5.529592	 88.126490	 15.072060	-2.994188	 136.727500	-23.446330	-23.938750	-5.355758	 5.716295	 19.173350	-3.684826	 5.027458	 0.246833	-9.377971	-2.350882	 35.473990	 5.254307
-0.711047	-0.031841	 1.268519	 167.756900	-6.775475	-0.260308	 1.909402	 0.570732	 179.637200	-0.729347	-30.143250	-1.101633	-44.656250	 76.776040	 35.004940	-2.385833	 28.452760	 0.000004	-32.759570	-8.088675	-166.737600	 11.590590	-32.479760	 6.407093	 15.097130	 77.290440	-17.237720	 2.384659	 28.388700	-0.000001	 61.260990	-3.239859	-13.881900	 11.862300	 11.814870	-2.771511	 0.625249	-1.013499	 2.393494	-91.776200	 78.527420	-180.000000	-40.848250	 38.112850	-30.854120	-30.534720	 18.785300	-56.538330	-61.964940	-57.316220	-38.698880	-4.130354	 21.526190	 0.991307	-5.167926	 0.731697	 3.519349	-1.378229	 35.397820	-2.634230	 14.795580	 5.358174	-5.033606	 5.571909	-19.290680	-5.738086	 89.782090	 78.203870	-180.000000	-47.349990	-5.607193	 89.093560	 16.579930	-4.499527	 136.506400	-27.245850	-21.486870	-7.768944	 5.716295	 19.173350	-3.684826	 5.027458	 0.246833	-9.377971	-2.350882	 35.473990	 5.254307
-0.712788	-0.030842	 1.269452	 167.498900	-6.301012	-0.058273	 1.312986	 0.430900	 179.653700	-0.538189	-30.041480	-1.002472	-45.267630	 76.845520	 35.682500	-2.385833	 28.452760	 0.000004	-33.394360	-8.295656	-166.873400	 11.872930	-32.233600	 6.519493	 15.963910	 77.367840	-18.105460	 2.384659	 28.388700	-0.000001	 62.616070	-5.277862	-13.776890	 13.381100	 13.043300	-4.747663	 0.271924	-1.979258	 3.056044	-91.776210	 78.527380	-180.000000	-43.003130	 36.299920	-36.224270	-30.856120	 17.950960	-54.973480	-62.170040	-57.994350	-38.393700	-4.130354	 21.526190	 0.991307	-5.167926	 0.731697	 3.519349	-1.378229	 35.397820	-2.634230	 14.339420	 5.417266	-4.761189	 5.158054	-20.605300	-6.772181	 89.782070	 78.203890	-180.000000	-44.447140	-6.287818	 89.888230	 17.924910	-6.069183	 135.512400	-31.247680	-18.892000	-9.968056	 5.716295	 19.173350	-3.684826	 5.027458	 0.246833	-9.377971	-2.350882	 35.473990	 5.254307
-0.715451	-0.029595	 1.270688	 167.316100	-5.808095	 0.405576	 0.583129	 0.008325	 179.485800	-0.335094	-30.207460	-0.905191	-44.949750	 77.117410	 35.326920	-2.385833	 28.452760	 0.000004	-34.120240	-8.531737	-167.341200	 12.160740	-31.954650	 6.626922	 16.731010	 77.373130	-18.913490	 2.384659	 28.388700	-0.000001	 63.942870	-7.272292	-14.079520	 14.947130	 13.412320	-6.616075	-0.106167	-2.327638	 3.771516	-91.776180	 78.527380	-180.000000	-44.016100	 34.964610	-41.644110	-31.266900	 16.849290	-52.723760	-61.492910	-58.725930	-37.365470	-4.130354	 21.526190	 0.991307	-5.167926	 0.731697	 3.519349	-1.378229	 35.397820	-2.634230	 13.792580	 4.651425	-4.446591	 4.644456	-20.839320	-7.963425	 89.782110	 78.203920	 180.000000	-40.935240	-6.729503	 91.174590	 18.706650	-7.450511	 133.465900	-34.461330	-16.708870	-12.377080	 5.716295	 19.173350	-3.684826	 5.027458	 0.246833	-9.377971	-2.350882	 35.473990	 5.254307
-0.718338	-0.028204	 1.271981	 167.220800	-5.365578	 0.838948	-0.349504	-0.523367	 179.422500	-0.045986	-30.410920	-0.764276	-44.549800	 77.384030	 34.822340	-2.385833	 28.452760	 0.000004	-34.904710	-9.000363	-167.809900	 12.479680	-31.915500	 6.794268	 16.171770	 77.339050	-18.313930	 2.384659	 28.388700	-0.000001	 65.281120	-8.996098	-14.196060	 16.489990	 12.920650	-8.408139	-0.501629	-2.082226	 4.474187	-91.776210	 78.527380	-180.000000	-43.904060	 34.110620	-46.862370	-31.476860	 15.692690	-50.696000	-60.315720	-59.525540	-35.962160	-4.130354	 21.526190	 0.991307	-5.167926	 0.731697	 3.519349	-1.378229	 35.397820	-2.634230	 13.287620	 4.039938	-4.214542	 4.115338	-21.040680	-9.364036	 89.782140	 78.203870	 180.000000	-37.227490	-6.505235	 92.625740	 19.089000	-8.847309	 130.460900	-36.788810	-14.809180	-14.402970	 5.716295	 19.173350	-3.684826	 5.027458	 0.246833	-9.377971	-2.350882	 35.473990	 5.254307
-0.719917	-0.026399	 1.273049	 167.218600	-4.852737	 1.328771	-1.451743	-0.952862	 179.220000	 0.326566	-30.424910	-0.575862	-45.082420	 77.468040	 35.282590	-2.385833	 28.452760	 0.000004	-35.753200	-9.365827	-168.179900	 12.830050	-32.119780	 7.025927	 16.670770	 77.640340	-18.751840	 2.384659	 28.388700	-0.000001	 66.576500	-10.868510	-13.907870	 18.083720	 12.446210	-9.896627	-0.914969	-1.889779	 4.845803	-91.776190	 78.527380	-180.000000	-42.518860	 33.255250	-52.860420	-31.561970	 14.499500	-48.753450	-58.819830	-60.354900	-34.277330	-4.130354	 21.526190	 0.991307	-5.167926	 0.731697	 3.519349	-1.378229	 35.397820	-2.634230	 12.813110	 3.846775	-4.032024	 3.617151	-21.668970	-10.461940	 89.782030	 78.203850	-179.999900	-33.456150	-5.000364	 93.531680	 19.330580	-10.595310	 126.742800	-38.316910	-12.756590	-14.848400	 5.716295	 19.173350	-3.684826	 5.027458	 0.246833	-9.377971	-2.350882	 35.473990	 5.254307
